<svg width="24" height="24" viewBox="0 0 24 24" fill="none" xmlns="http://www.w3.org/2000/svg">
<g id="Content" clip-path="url(#clip0_3248_2005)">
<g id="Group 1010105120">
<g id="shopping-bag 1">
<path id="Vector" d="M6.66667 3L4 6.55556V19C4 19.4715 4.1873 19.9237 4.5207 20.2571C4.8541 20.5905 5.30628 20.7778 5.77778 20.7778H18.2222C18.6937 20.7778 19.1459 20.5905 19.4793 20.2571C19.8127 19.9237 20 19.4715 20 19V6.55556L17.3333 3H6.66667Z" stroke="#2AA65C" stroke-width="2" stroke-linecap="round" stroke-linejoin="round"/>
<path id="Vector_2" d="M4 6.55566H20" stroke="#2AA65C" stroke-width="2" stroke-linecap="round" stroke-linejoin="round"/>
<path id="Vector_3" d="M15.5564 10.1113C15.5564 11.0543 15.1818 11.9587 14.515 12.6255C13.8482 13.2923 12.9439 13.6669 12.0009 13.6669C11.0579 13.6669 10.1535 13.2923 9.48671 12.6255C8.81991 11.9587 8.44531 11.0543 8.44531 10.1113" stroke="#2AA65C" stroke-width="2" stroke-linecap="round" stroke-linejoin="round"/>
</g>
<path id="Polygon 1 (Stroke)" fill-rule="evenodd" clip-rule="evenodd" d="M16.6665 15.5268C15.9671 15.2937 15.3079 15.9715 15.5603 16.6642L17.9777 23.2979C18.246 24.034 19.2696 24.0799 19.6027 23.3708L20.725 20.9816C20.8088 20.8033 20.9499 20.6582 21.1258 20.5695L23.4828 19.3813C24.1824 19.0287 24.1081 18.0067 23.3648 17.759L16.6665 15.5268Z" fill="#2AA65C"/>
</g>
</g>
<defs>
<clipPath id="clip0_3248_2005">
<rect width="24" height="24" fill="white"/>
</clipPath>
</defs>
</svg>
