<svg width="49" height="48" viewBox="0 0 49 48" fill="none" xmlns="http://www.w3.org/2000/svg">
<rect x="1" y="0.5" width="47" height="47" rx="11.5" fill="white"/>
<rect x="1" y="0.5" width="47" height="47" rx="11.5" stroke="#F1F2F6"/>
<g opacity="0.5">
<path d="M17.8252 23.2761C17.986 23.1687 18.175 23.1113 18.3684 23.1113C18.6277 23.1113 18.8764 23.2143 19.0598 23.3977C19.2432 23.5811 19.3462 23.8298 19.3462 24.0891C19.3462 24.2825 19.2888 24.4715 19.1814 24.6323C19.074 24.7931 18.9212 24.9184 18.7426 24.9925C18.5639 25.0665 18.3673 25.0858 18.1776 25.0481C17.988 25.0104 17.8138 24.9172 17.677 24.7805C17.5403 24.6438 17.4471 24.4695 17.4094 24.2799C17.3717 24.0902 17.391 23.8936 17.4651 23.7149C17.5391 23.5363 17.6644 23.3836 17.8252 23.2761Z" fill="#2AA65C"/>
<path d="M29.5585 23.2761C29.7193 23.1687 29.9083 23.1113 30.1017 23.1113C30.3611 23.1113 30.6098 23.2143 30.7931 23.3977C30.9765 23.5811 31.0795 23.8298 31.0795 24.0891C31.0795 24.2825 31.0222 24.4715 30.9147 24.6323C30.8073 24.7931 30.6546 24.9184 30.4759 24.9925C30.2972 25.0665 30.1007 25.0858 29.911 25.0481C29.7213 25.0104 29.5471 24.9172 29.4103 24.7805C29.2736 24.6438 29.1805 24.4695 29.1427 24.2799C29.105 24.0902 29.1244 23.8936 29.1984 23.7149C29.2724 23.5363 29.3977 23.3836 29.5585 23.2761Z" fill="#2AA65C"/>
</g>
<rect x="12.5" y="15.3213" width="24" height="17.4545" rx="2" stroke="#2AA65C" stroke-width="2" stroke-linecap="round" stroke-linejoin="round"/>
<path d="M26.6048 24.056C26.6048 22.7381 25.5363 21.6697 24.2184 21.6697C22.9004 21.6697 21.832 22.7381 21.832 24.056C21.832 25.374 22.9004 26.4424 24.2184 26.4424C25.5363 26.4424 26.6048 25.374 26.6048 24.056Z" fill="#2AA65C"/>
</svg>
