<svg width="49" height="48" viewBox="0 0 49 48" fill="none" xmlns="http://www.w3.org/2000/svg">
<rect x="1" y="0.5" width="47" height="47" rx="11.5" fill="white"/>
<rect x="1" y="0.5" width="47" height="47" rx="11.5" stroke="#F1F2F6"/>
<path fill-rule="evenodd" clip-rule="evenodd" d="M29.7906 14.4779C30.0019 14.3394 30.0124 14.0629 29.8123 13.9116C29.1759 13.4301 28.676 13.1392 27.7741 13.1392C26.5163 13.1392 25.157 13.3702 24.5014 14.2301C23.8458 13.3702 22.4865 13.1392 21.2287 13.1392C20.4049 13.1392 19.821 13.3819 19.2106 13.7909C18.9843 13.9425 18.9944 14.2428 19.2295 14.3835C20.3185 15.0355 20.8199 16.642 21.2287 17.5028C21.4024 17.8689 21.8721 18.5937 22.3196 18.5937H26.6832C27.1394 18.5937 27.6043 17.8786 27.7741 17.5028C28.1529 16.6645 28.8021 15.1261 29.7906 14.4779Z" fill="#2AA65C"/>
<path fill-rule="evenodd" clip-rule="evenodd" d="M32.5472 32.3121C34.3745 28.1375 32.402 23.3725 28.0819 21.5131C23.6909 19.6233 18.5266 21.4895 16.5465 25.6818C15.3634 28.1868 15.5851 30.9553 16.8918 33.1816C17.4315 34.1012 18.0957 34.9572 19.1998 34.9572H29.4787C30.5788 34.9572 31.5597 34.1066 32.0985 33.1908C32.2637 32.9099 32.4138 32.6169 32.5472 32.3121Z" stroke="#2AA65C" stroke-width="2" stroke-linecap="round" stroke-linejoin="round"/>
</svg>
