<svg width="49" height="48" viewBox="0 0 49 48" fill="none" xmlns="http://www.w3.org/2000/svg">
<rect x="1" y="0.5" width="47" height="47" rx="11.5" fill="white"/>
<rect x="1" y="0.5" width="47" height="47" rx="11.5" stroke="#F1F2F6"/>
<rect x="17.957" y="14.1821" width="13.0909" height="19.6364" rx="2" stroke="#2AA65C" stroke-width="2" stroke-linecap="round" stroke-linejoin="round"/>
<path opacity="0.2" d="M20.1406 19.2005C20.1406 18.2365 20.9221 17.4551 21.8861 17.4551H27.1224C28.0864 17.4551 28.8679 18.2365 28.8679 19.2005V28.8005C28.8679 29.7645 28.0864 30.546 27.1224 30.546H21.8861C20.9221 30.546 20.1406 29.7645 20.1406 28.8005V19.2005Z" fill="#2AA65C"/>
<path d="M26.1399 30.0001C26.1399 30.9039 25.4073 31.6365 24.5036 31.6365C23.5998 31.6365 22.8672 30.9039 22.8672 30.0001C22.8672 29.0964 23.5998 28.3638 24.5036 28.3638C25.4073 28.3638 26.1399 29.0964 26.1399 30.0001Z" fill="#2AA65C"/>
</svg>
