<svg width="24" height="24" viewBox="0 0 24 24" fill="none" xmlns="http://www.w3.org/2000/svg">
<g id="mark">
<path id="Vector" d="M12.0695 22.6966C11.655 22.6966 11.235 22.5384 10.9186 22.2221L8.70953 20.013H5.58408C4.68408 20.013 3.95862 19.2821 3.95862 18.3875V15.2621L1.74408 13.0475C1.11135 12.4148 1.11135 11.3784 1.74408 10.7457L3.95317 8.5366V5.41114C3.95317 4.51114 4.68408 3.78569 5.57862 3.78569H8.70408L10.9132 1.5766C11.5459 0.943869 12.5823 0.943869 13.215 1.5766L15.4241 3.78569H18.5495C19.4495 3.78569 20.175 4.5166 20.175 5.41114V8.5366L22.3841 10.7457C23.0168 11.3784 23.0168 12.4148 22.3841 13.0475L20.175 15.2566V18.3821C20.175 19.2821 19.4441 20.0075 18.5495 20.0075H15.435L13.2259 22.2166C12.9041 22.5384 12.4895 22.6966 12.0695 22.6966Z" fill="white"/>
<path id="Vector_2" d="M23.0186 10.8161L20.575 8.37247V4.91429C20.575 4.07429 19.8931 3.39248 19.0531 3.39248H15.595L13.1513 0.948839C12.5568 0.354293 11.5913 0.354293 10.9968 0.948839L8.55314 3.39248H5.09496C4.25496 3.39248 3.57314 4.07429 3.57314 4.91429V8.37247L1.1295 10.8161C0.534957 11.4107 0.534957 12.3761 1.1295 12.9707L3.57314 15.4143V18.8725C3.57314 19.7125 4.25496 20.3943 5.09496 20.3943H8.55314L10.9968 22.8379C11.5913 23.4325 12.5568 23.4325 13.1513 22.8379L15.595 20.3943H19.0531C19.8931 20.3943 20.575 19.7125 20.575 18.8725V15.4143L23.0186 12.9707C23.6131 12.3761 23.6131 11.4107 23.0186 10.8161ZM22.004 12.6488L19.6313 15.0216V18.3816C19.6313 18.9707 19.1513 19.4507 18.5622 19.4507H15.2022L12.8295 21.8234C12.4095 22.2434 11.7331 22.2434 11.3186 21.8234L8.94587 19.4507H5.58587C4.99678 19.4507 4.51678 18.9707 4.51678 18.3816V15.0216L2.14405 12.6488C1.72405 12.2288 1.72405 11.5525 2.14405 11.1379L4.51678 8.7652V5.4052C4.51678 4.81611 4.99678 4.33611 5.58587 4.33611H8.94587L11.3186 1.96338C11.7386 1.54338 12.415 1.54338 12.8295 1.96338L15.2022 4.33611H18.5622C19.1513 4.33611 19.6313 4.81611 19.6313 5.4052V8.7652L22.004 11.1379C22.424 11.5579 22.424 12.2343 22.004 12.6488Z" stroke="#2AA65C" stroke-width="0.70303" stroke-miterlimit="10"/>
<path id="Vector_3" d="M11.2933 3.23431L3.41693 11.1107C2.98602 11.5416 2.98602 12.2452 3.41693 12.6816L5.3533 14.6179C5.98057 13.8543 6.94602 12.9652 8.34784 12.3052C11.3478 10.898 13.1642 12.1743 15.0242 9.98159C16.186 8.6125 15.9188 7.13431 15.6024 6.27795C15.4769 5.95068 15.2806 5.65613 15.0351 5.40522L12.8642 3.23431C12.4278 2.80341 11.7242 2.80341 11.2933 3.23431Z" fill="#2AA65C"/>
<path id="Vector_4" d="M12.8541 20.5526L20.7305 12.6762C21.1614 12.2453 21.1614 11.5417 20.7305 11.1053L18.7941 9.16895C18.1668 9.93258 17.2014 10.8217 15.7996 11.4817C12.7996 12.8889 10.9832 11.6126 9.12319 13.8053C7.96138 15.1744 8.22865 16.6526 8.54501 17.5089C8.67047 17.8362 8.86683 18.1308 9.11228 18.3817L11.2832 20.5526C11.7196 20.9835 12.4232 20.9835 12.8541 20.5526Z" fill="#2AA65C"/>
<path id="Vector_5" d="M23.0186 10.8161L20.575 8.37248V4.91429C20.575 4.07429 19.8931 3.39248 19.0531 3.39248H15.595L13.1513 0.948839C12.5568 0.354293 11.5913 0.354293 10.9968 0.948839L8.55314 3.39248H5.09496C4.25496 3.39248 3.57314 4.07429 3.57314 4.91429V8.37248L1.1295 10.8161C0.534957 11.4107 0.534957 12.3761 1.1295 12.9707L3.57314 15.4143V18.8725C3.57314 19.7125 4.25496 20.3943 5.09496 20.3943H8.55314L10.9968 22.8379C11.5913 23.4325 12.5568 23.4325 13.1513 22.8379L15.595 20.3943H19.0531C19.8931 20.3943 20.575 19.7125 20.575 18.8725V15.4143L23.0186 12.9707C23.6131 12.3761 23.6131 11.4107 23.0186 10.8161ZM22.004 12.6488L19.6313 15.0216V18.3816C19.6313 18.9707 19.1513 19.4507 18.5622 19.4507H15.2022L12.8295 21.8234C12.4095 22.2434 11.7331 22.2434 11.3186 21.8234L8.94587 19.4507H5.58587C4.99678 19.4507 4.51678 18.9707 4.51678 18.3816V15.0216L2.14405 12.6488C1.72405 12.2288 1.72405 11.5525 2.14405 11.1379L4.51678 8.7652V5.4052C4.51678 4.81611 4.99678 4.33611 5.58587 4.33611H8.94587L11.3186 1.96338C11.7386 1.54338 12.415 1.54338 12.8295 1.96338L15.2022 4.33611H18.5622C19.1513 4.33611 19.6313 4.81611 19.6313 5.4052V8.7652L22.004 11.1379C22.424 11.5579 22.424 12.2343 22.004 12.6488Z" fill="#2AA65C"/>
</g>
</svg>
