<svg width="49" height="48" viewBox="0 0 49 48" fill="none" xmlns="http://www.w3.org/2000/svg">
<rect x="1" y="0.5" width="47" height="47" rx="11.5" fill="white"/>
<rect x="1" y="0.5" width="47" height="47" rx="11.5" stroke="#F1F2F6"/>
<path d="M7.04688 23.2278H8.81469V19.5724H13.0003V23.2278H14.7681V14.3663H13.0003V18.0093H8.81469V14.3663H7.04688V23.2278Z" fill="#2AA65C"/>
<path d="M18.5426 23.4124C19.0842 23.4124 19.5391 23.3345 19.9074 23.1786C20.28 23.0186 20.6223 22.7642 20.9343 22.4155V23.2278H22.4811V19.1663C22.4811 18.8627 22.4681 18.5878 22.4421 18.3416C22.4162 18.0955 22.3338 17.8493 22.1952 17.6032C21.9482 17.1601 21.5842 16.8483 21.1033 16.6678C20.6223 16.4873 20.0721 16.397 19.4525 16.397C18.6075 16.397 17.9403 16.5693 17.4507 16.9139C16.9611 17.2586 16.6274 17.7057 16.4498 18.2555L18.0486 18.7355C18.1613 18.4319 18.3584 18.2206 18.64 18.1016C18.9217 17.9827 19.1925 17.9232 19.4525 17.9232C19.8684 17.9232 20.1782 17.997 20.3819 18.1447C20.5855 18.2883 20.7047 18.516 20.7393 18.8278C20.0807 18.9181 19.5001 19.0063 18.9975 19.0924C18.4949 19.1745 18.0746 19.2729 17.7366 19.3878C17.1734 19.5847 16.7769 19.8534 16.5473 20.1939C16.3176 20.5304 16.2028 20.9304 16.2028 21.3939C16.2028 21.7632 16.2916 22.1016 16.4693 22.4093C16.6512 22.7129 16.9156 22.957 17.2622 23.1416C17.6132 23.3222 18.0399 23.4124 18.5426 23.4124ZM18.9195 22.0955C18.6162 22.0955 18.3757 22.0319 18.1981 21.9047C18.0204 21.7734 17.9316 21.595 17.9316 21.3693C17.9316 21.2011 17.9879 21.0575 18.1006 20.9386C18.2133 20.8155 18.3996 20.7047 18.6595 20.6063C18.8589 20.5365 19.1037 20.4729 19.394 20.4155C19.6886 20.3539 20.1327 20.276 20.7263 20.1816C20.722 20.3416 20.709 20.5181 20.6873 20.7109C20.6657 20.8996 20.618 21.0657 20.5443 21.2093C20.4967 21.3037 20.4057 21.4206 20.2714 21.5601C20.1414 21.6996 19.9637 21.8247 19.7384 21.9355C19.5175 22.0422 19.2445 22.0955 18.9195 22.0955Z" fill="#2AA65C"/>
<path d="M24.3011 23.2278H26.0689V14.1816H24.3011V23.2278Z" fill="#2AA65C"/>
<path d="M28.9143 26.1816H30.5521L34.5167 16.5816H32.7489L30.916 21.1047L29.0702 16.5816H27.2374L30.0711 23.1724L28.9143 26.1816Z" fill="#2AA65C"/>
<path d="M35.4176 23.2278H37.2245V20.0278L39.6552 23.2278H41.956L39.2522 19.9047L41.787 16.5816H39.6032L37.2245 19.7816V14.3663H35.4306L35.4176 23.2278Z" fill="#2AA65C"/>
<path d="M16.0798 34.909C14.9567 34.909 14.0793 34.5899 13.4476 33.9517C12.8159 33.3135 12.5 32.4217 12.5 31.2763C12.5 30.2208 12.7301 29.2676 13.1902 28.4167C13.6504 27.5658 14.2782 26.899 15.0737 26.4163C15.8692 25.9335 16.7583 25.6922 17.741 25.6922C18.4117 25.6922 18.9421 25.8149 19.332 26.0604C19.722 26.2976 19.9169 26.629 19.9169 27.0545C19.9169 27.4063 19.7961 27.6967 19.5543 27.9258C19.3203 28.1467 19.0201 28.2572 18.6535 28.2572C18.2947 28.2572 17.9633 28.159 17.6591 27.9626C17.3549 27.7663 17.1132 27.4758 16.9338 27.0913C16.497 27.2713 16.1032 27.574 15.7522 27.9995C15.4091 28.4167 15.14 28.9158 14.945 29.4967C14.75 30.0695 14.6526 30.6831 14.6526 31.3376C14.6526 32.1067 14.7812 32.7081 15.0386 33.1417C15.3038 33.5672 15.6742 33.7799 16.15 33.7799C16.5165 33.7799 16.848 33.6776 17.1444 33.4731C17.4407 33.2685 17.6747 32.9904 17.8463 32.6385C18.0257 32.2867 18.1271 31.8981 18.1505 31.4726C19.0317 31.4726 19.4724 31.8163 19.4724 32.5035C19.4724 32.9372 19.3203 33.3381 19.0162 33.7063C18.712 34.0745 18.2986 34.369 17.7761 34.5899C17.2614 34.8026 16.6959 34.909 16.0798 34.909Z" fill="#2AA65C"/>
<path d="M22.3302 34.909C21.9559 34.909 21.679 34.7904 21.4996 34.5531C21.3281 34.3158 21.2423 33.9476 21.2423 33.4485C21.2423 33.0558 21.3359 32.2458 21.523 31.0185C21.718 29.7913 21.9559 28.3472 22.2367 26.6863L21.6283 25.8395C21.9091 25.6185 22.2172 25.4385 22.5525 25.2995C22.8957 25.1604 23.2076 25.0908 23.4884 25.0908C23.7926 25.0908 24.011 25.1522 24.1435 25.2749C24.2761 25.3976 24.3424 25.6022 24.3424 25.8885C24.3424 26.0604 24.3112 26.3099 24.2488 26.6372C24.1942 26.9645 24.1084 27.4145 23.9915 27.9872C23.7653 29.059 23.582 30.0245 23.4416 30.8835C23.309 31.7426 23.2427 32.5485 23.2427 33.3013C23.2427 33.5876 23.2661 33.8126 23.3129 33.9763C23.3675 34.1399 23.4494 34.2831 23.5586 34.4058C23.387 34.5695 23.192 34.6922 22.9737 34.774C22.7553 34.864 22.5408 34.909 22.3302 34.909Z" fill="#2AA65C"/>
<path d="M32.1307 33.4731C32.1307 33.9231 32.2321 34.234 32.4349 34.4058C32.0683 34.7413 31.6784 34.909 31.265 34.909C30.8984 34.909 30.6216 34.8108 30.4344 34.6145C30.2472 34.4181 30.1419 34.1154 30.1185 33.7063L30.0132 33.6449C29.7169 34.0295 29.3542 34.3363 28.9253 34.5654C28.5041 34.7945 28.0596 34.909 27.5916 34.909C26.9599 34.909 26.4919 34.7495 26.1878 34.4304C25.8836 34.1031 25.7315 33.5999 25.7315 32.9208C25.7315 32.6099 25.7549 32.2826 25.8017 31.939C25.8563 31.5954 25.9304 31.1617 26.024 30.6381C26.102 30.2045 26.1605 29.8445 26.1995 29.5581C26.2463 29.2717 26.2697 29.014 26.2697 28.7849C26.2697 28.3267 26.2034 27.979 26.0708 27.7417C26.3282 27.5945 26.5933 27.4758 26.8663 27.3858C27.1471 27.2876 27.3732 27.2385 27.5448 27.2385C27.8334 27.2385 28.0401 27.304 28.1649 27.4349C28.2974 27.5658 28.3637 27.7826 28.3637 28.0854C28.3637 28.2817 28.3325 28.5599 28.2701 28.9199C28.2077 29.2717 28.1142 29.7545 27.9894 30.3681C27.9036 30.8017 27.8217 31.2272 27.7437 31.6445C27.6735 32.0535 27.6384 32.3481 27.6384 32.5281C27.6384 33.2726 27.9465 33.6449 28.5626 33.6449C28.8668 33.6449 29.1631 33.5467 29.4517 33.3504C29.7481 33.1458 30.0054 32.8676 30.2238 32.5158C30.3252 31.8695 30.567 30.6708 30.9491 28.9199L30.3642 27.9995C31.1207 27.4922 31.7602 27.2385 32.2828 27.2385C32.5713 27.2385 32.7741 27.304 32.8911 27.4349C33.0159 27.5576 33.0783 27.7663 33.0783 28.0608C33.0783 28.1754 32.9886 28.6295 32.8092 29.4231C32.6064 30.3067 32.4427 31.084 32.3179 31.7549C32.1931 32.4176 32.1307 32.9904 32.1307 33.4731Z" fill="#2AA65C"/>
<path d="M39.7786 27.2385C40.2075 27.2385 40.5858 27.3572 40.9134 27.5945C41.2487 27.8235 41.5061 28.1508 41.6855 28.5763C41.8649 29.0017 41.9545 29.4967 41.9545 30.0613C41.9545 30.9858 41.7323 31.8204 41.2877 32.5649C40.8432 33.3013 40.227 33.8781 39.4393 34.2954C38.6516 34.7045 37.7625 34.909 36.772 34.909C36.0935 34.909 35.5983 34.7535 35.2863 34.4426C34.9821 34.1317 34.8301 33.6204 34.8301 32.9085C34.8301 32.5076 34.9003 31.8613 35.0406 30.9695C35.181 30.0776 35.4267 28.654 35.7777 26.6985L35.181 25.8517C35.4696 25.6308 35.7777 25.4508 36.1052 25.3117C36.4406 25.1726 36.7525 25.1031 37.0411 25.1031C37.3453 25.1031 37.5598 25.1645 37.6845 25.2872C37.8171 25.4099 37.8834 25.6145 37.8834 25.9008C37.8834 26.089 37.8561 26.3181 37.8015 26.5881C37.7469 26.8581 37.6533 27.2876 37.5208 27.8767L37.2517 29.0795L37.3687 29.1408C37.6182 28.5435 37.9536 28.0772 38.3748 27.7417C38.8037 27.4063 39.2717 27.2385 39.7786 27.2385ZM36.5264 33.829C37.1659 33.7799 37.7469 33.5999 38.2695 33.289C38.7998 32.9781 39.2171 32.5731 39.5212 32.074C39.8254 31.5667 39.9775 31.0185 39.9775 30.4295C39.9775 29.9713 39.8839 29.6154 39.6967 29.3617C39.5173 29.1081 39.26 28.9813 38.9246 28.9813C38.5034 28.9813 38.1096 29.1858 37.743 29.5949C37.3765 29.9958 37.0801 30.5645 36.8539 31.3008C36.6356 32.0372 36.5264 32.8799 36.5264 33.829Z" fill="#2AA65C"/>
</svg>
