<svg width="32" height="19" viewBox="0 0 32 19" fill="none" xmlns="http://www.w3.org/2000/svg">
<g id="Group 498">
<g id="Halyk">
<path d="M0 8.29231H1.6205V4.94154H5.45727V8.29231H7.07776V0.169231H5.45727V3.50872H1.6205V0.169231H0V8.29231Z" fill="#2AA65C"/>
<path d="M10.5377 8.46154C11.0342 8.46154 11.4512 8.39009 11.7888 8.24718C12.1304 8.10051 12.4442 7.86735 12.7301 7.54769V8.29231H14.1481V4.56923C14.1481 4.29094 14.1362 4.03897 14.1123 3.81333C14.0885 3.58769 14.013 3.36205 13.8859 3.13641C13.6595 2.73026 13.3259 2.44444 12.885 2.27897C12.4442 2.1135 11.9398 2.03077 11.3718 2.03077C10.5973 2.03077 9.98563 2.18872 9.53681 2.50462C9.088 2.82051 8.78217 3.23043 8.61932 3.73436L10.0849 4.17436C10.1882 3.89607 10.3689 3.70239 10.6271 3.59333C10.8852 3.48427 11.1335 3.42974 11.3718 3.42974C11.7531 3.42974 12.0371 3.49744 12.2237 3.63282C12.4104 3.76444 12.5196 3.97316 12.5514 4.25897C11.9477 4.34171 11.4155 4.42256 10.9547 4.50154C10.494 4.57675 10.1088 4.66701 9.79895 4.77231C9.28261 4.95282 8.91919 5.19915 8.70869 5.51128C8.49818 5.81966 8.39293 6.18632 8.39293 6.61128C8.39293 6.94974 8.47435 7.26 8.6372 7.54205C8.80401 7.82034 9.04629 8.0441 9.36404 8.21333C9.68575 8.3788 10.077 8.46154 10.5377 8.46154ZM10.8833 7.25436C10.6052 7.25436 10.3848 7.19607 10.2219 7.07949C10.0591 6.95914 9.97768 6.79555 9.97768 6.58872C9.97768 6.43453 10.0293 6.30291 10.1326 6.19385C10.2358 6.08103 10.4066 5.97949 10.6449 5.88923C10.8276 5.8253 11.0521 5.76701 11.3182 5.71436C11.5883 5.65795 11.9954 5.5865 12.5395 5.5C12.5355 5.64667 12.5236 5.80838 12.5038 5.98513C12.4839 6.15812 12.4402 6.31043 12.3727 6.44205C12.329 6.52855 12.2456 6.63573 12.1225 6.76359C12.0033 6.89145 11.8405 7.00615 11.6339 7.10769C11.4314 7.20547 11.1811 7.25436 10.8833 7.25436Z" fill="#2AA65C"/>
<path d="M15.8163 8.29231H17.4368V0H15.8163V8.29231Z" fill="#2AA65C"/>
<path d="M20.0451 11H21.5464L25.1807 2.2H23.5602L21.8801 6.34615L20.1881 2.2H18.508L21.1056 8.24154L20.0451 11Z" fill="#2AA65C"/>
<path d="M26.0065 8.29231H27.6628V5.35897L29.891 8.29231H32L29.5216 5.24615L31.8451 2.2H29.8433L27.6628 5.13333V0.169231H26.0185L26.0065 8.29231Z" fill="#2AA65C"/>
</g>
<g id="Club">
<path d="M8.28147 19C7.25199 19 6.44771 18.7075 5.86863 18.1225C5.28954 17.5375 5 16.72 5 15.67C5 14.7025 5.2109 13.8288 5.6327 13.0488C6.0545 12.2688 6.63001 11.6575 7.35923 11.215C8.08845 10.7725 8.90345 10.5513 9.80425 10.5513C10.4191 10.5513 10.9052 10.6637 11.2627 10.8887C11.6201 11.1062 11.7989 11.41 11.7989 11.8C11.7989 12.1225 11.6881 12.3888 11.4664 12.5988C11.252 12.8013 10.9767 12.9025 10.6407 12.9025C10.3118 12.9025 10.008 12.8125 9.72918 12.6325C9.45036 12.4525 9.22874 12.1862 9.06431 11.8337C8.66395 11.9987 8.30292 12.2762 7.98121 12.6662C7.66664 13.0487 7.42 13.5062 7.24127 14.0388C7.06254 14.5637 6.97317 15.1263 6.97317 15.7263C6.97317 16.4313 7.09114 16.9825 7.32706 17.38C7.57013 17.77 7.90972 17.965 8.34582 17.965C8.68183 17.965 8.98567 17.8713 9.25734 17.6838C9.529 17.4963 9.74348 17.2413 9.90076 16.9188C10.0652 16.5963 10.1581 16.24 10.1796 15.85C10.9874 15.85 11.3914 16.165 11.3914 16.795C11.3914 17.1925 11.252 17.56 10.9731 17.8975C10.6943 18.235 10.3154 18.505 9.83642 18.7075C9.36457 18.9025 8.84626 19 8.28147 19Z" fill="#2AA65C"/>
<path d="M14.0111 19C13.6679 19 13.4141 18.8912 13.2497 18.6737C13.0924 18.4563 13.0137 18.1188 13.0137 17.6613C13.0137 17.3013 13.0995 16.5588 13.2711 15.4338C13.4498 14.3087 13.6679 12.985 13.9253 11.4625L13.3676 10.6862C13.625 10.4837 13.9074 10.3187 14.2148 10.1912C14.5294 10.0637 14.8153 10 15.0727 10C15.3515 10 15.5517 10.0562 15.6732 10.1687C15.7948 10.2812 15.8555 10.4687 15.8555 10.7312C15.8555 10.8887 15.827 11.1175 15.7698 11.4175C15.7197 11.7175 15.6411 12.13 15.5338 12.655C15.3265 13.6375 15.1585 14.5225 15.0298 15.31C14.9083 16.0975 14.8475 16.8363 14.8475 17.5263C14.8475 17.7888 14.869 17.995 14.9119 18.145C14.9619 18.295 15.037 18.4263 15.1371 18.5388C14.9798 18.6888 14.801 18.8013 14.6009 18.8763C14.4007 18.9588 14.2041 19 14.0111 19Z" fill="#2AA65C"/>
<path d="M22.9948 17.6838C22.9948 18.0963 23.0877 18.3813 23.2736 18.5388C22.9376 18.8463 22.5802 19 22.2013 19C21.8652 19 21.6114 18.91 21.4399 18.73C21.2683 18.55 21.1718 18.2725 21.1503 17.8975L21.0538 17.8413C20.7821 18.1938 20.4497 18.475 20.0565 18.685C19.6704 18.895 19.2629 19 18.834 19C18.2549 19 17.826 18.8538 17.5471 18.5612C17.2683 18.2612 17.1289 17.8 17.1289 17.1775C17.1289 16.8925 17.1504 16.5925 17.1932 16.2775C17.2433 15.9625 17.3112 15.565 17.397 15.085C17.4685 14.6875 17.5221 14.3575 17.5579 14.095C17.6008 13.8325 17.6222 13.5963 17.6222 13.3863C17.6222 12.9662 17.5614 12.6475 17.4399 12.43C17.6758 12.295 17.9189 12.1862 18.1691 12.1037C18.4265 12.0137 18.6338 11.9687 18.7911 11.9687C19.0556 11.9687 19.2451 12.0288 19.3595 12.1487C19.481 12.2688 19.5418 12.4675 19.5418 12.745C19.5418 12.925 19.5132 13.18 19.456 13.51C19.3988 13.8325 19.313 14.275 19.1986 14.8375C19.12 15.235 19.0449 15.625 18.9734 16.0075C18.9091 16.3825 18.8769 16.6525 18.8769 16.8175C18.8769 17.5 19.1593 17.8413 19.7241 17.8413C20.0029 17.8413 20.2745 17.7513 20.5391 17.5713C20.8107 17.3838 21.0467 17.1288 21.2468 16.8063C21.3398 16.2138 21.5614 15.115 21.9117 13.51L21.3755 12.6662C22.069 12.2012 22.6552 11.9687 23.1342 11.9687C23.3987 11.9687 23.5846 12.0288 23.6919 12.1487C23.8062 12.2613 23.8634 12.4525 23.8634 12.7225C23.8634 12.8275 23.7812 13.2437 23.6168 13.9712C23.4309 14.7812 23.2808 15.4938 23.1664 16.1088C23.052 16.7163 22.9948 17.2413 22.9948 17.6838Z" fill="#2AA65C"/>
<path d="M30.0054 11.9687C30.3986 11.9687 30.7453 12.0775 31.0456 12.295C31.353 12.505 31.5889 12.805 31.7534 13.195C31.9178 13.585 32 14.0387 32 14.5562C32 15.4037 31.7962 16.1688 31.3887 16.8513C30.9812 17.5263 30.4165 18.055 29.6944 18.4375C28.9723 18.8125 28.1573 19 27.2494 19C26.6274 19 26.1734 18.8575 25.8875 18.5725C25.6086 18.2875 25.4692 17.8188 25.4692 17.1663C25.4692 16.7987 25.5336 16.2063 25.6623 15.3888C25.7909 14.5713 26.0161 13.2662 26.3379 11.4737L25.7909 10.6975C26.0555 10.495 26.3379 10.33 26.6381 10.2025C26.9455 10.075 27.2315 10.0112 27.496 10.0112C27.7748 10.0112 27.9714 10.0675 28.0858 10.18C28.2074 10.2925 28.2681 10.48 28.2681 10.7425C28.2681 10.915 28.2431 11.125 28.1931 11.3725C28.143 11.62 28.0572 12.0137 27.9357 12.5537L27.689 13.6562L27.7963 13.7125C28.0251 13.165 28.3325 12.7375 28.7185 12.43C29.1117 12.1225 29.5407 11.9687 30.0054 11.9687ZM27.0242 18.01C27.6104 17.965 28.143 17.8 28.622 17.515C29.1082 17.23 29.4906 16.8587 29.7695 16.4012C30.0483 15.9362 30.1877 15.4338 30.1877 14.8937C30.1877 14.4737 30.1019 14.1475 29.9303 13.915C29.7659 13.6825 29.53 13.5663 29.2225 13.5663C28.8365 13.5663 28.4755 13.7537 28.1394 14.1287C27.8034 14.4962 27.5318 15.0175 27.3244 15.6925C27.1243 16.3675 27.0242 17.14 27.0242 18.01Z" fill="#2AA65C"/>
</g>
</g>
</svg>
