<svg width="22" height="27" viewBox="0 0 22 27" fill="none" xmlns="http://www.w3.org/2000/svg">
<path d="M4.75351 9.04443L10.9999 3.97389L17.2465 9.04443H22L10.9999 0.0444336L0 9.04443H4.75351Z" fill="#2AA65C"/>
<path d="M20 5.04443V0.0444336H16V1.92932L20 5.04443Z" fill="#2AA65C"/>
<path d="M5.38732 11.0519L2.59265 11.0447C1.39685 11.0447 1 11.8166 1 12.3741C1 13.3604 1.79545 13.9394 3.34249 13.8579C3.90851 16.6934 4.47639 19.2039 5.03974 22.0446L18.7949 22.0446C19.5523 18.2673 20.2478 14.8244 21 11.0446C18.4557 11.0179 15.9693 11.0446 14.0353 11.0446H13.9563C12.7605 11.0446 12.3643 11.9041 12.3619 12.3955C12.3595 12.8868 12.7605 13.8694 13.9563 13.8694H17.8431C17.4684 15.7555 17.0909 17.6403 16.7111 19.5238L7.06542 19.5238C6.50459 16.7063 5.94536 13.8823 5.38732 11.0519Z" fill="#2AA65C"/>
<path d="M6.55859 26.0444C7.45599 26.0444 8.18358 25.3169 8.18358 24.4194C8.18358 23.5219 7.45599 22.7944 6.55859 22.7944C5.66118 22.7944 4.93359 23.5219 4.93359 24.4194C4.93359 25.3169 5.66118 26.0444 6.55859 26.0444Z" fill="#2AA65C"/>
<path d="M17.0234 26.0444C17.9212 26.0444 18.6484 25.3169 18.6484 24.4194C18.6484 23.5219 17.9212 22.7944 17.0234 22.7944C16.126 22.7944 15.3984 23.5219 15.3984 24.4194C15.3984 25.3169 16.126 26.0444 17.0234 26.0444Z" fill="#2AA65C"/>
</svg>
