<svg width="24" height="24" viewBox="0 0 24 24" fill="none" xmlns="http://www.w3.org/2000/svg">
<path d="M12 19V7.25407C12 6.12582 12.3793 5.04378 13.0544 4.24599C13.7295 3.44819 14.6452 3 15.6 3H21V10.9764V14.0138" stroke="#2AA65C" stroke-width="2" stroke-linecap="round" stroke-linejoin="round"/>
<path d="M3 3H8.4C9.35478 3 10.2705 3.44952 10.9456 4.24968C11.6207 5.04983 12 6.13508 12 7.26667C12 15.0598 12 19 12 19C12 19 11.1 17.047 9.3 17.047C7.5 17.047 3 17.047 3 17.047V3Z" stroke="#2AA65C" stroke-width="2" stroke-linecap="round" stroke-linejoin="round"/>
<path d="M16.5 18.5V17M16.5 14.5H16.505M21 16.5C21 18.985 18.985 21 16.5 21C14.01 21 12 18.985 12 16.5C12 14.01 14.01 12 16.5 12C18.985 12 21 14.01 21 16.5Z" stroke="#2AA65C" stroke-width="2" stroke-linecap="round" stroke-linejoin="round"/>
</svg>
