<svg width="49" height="48" viewBox="0 0 49 48" fill="none" xmlns="http://www.w3.org/2000/svg">
<rect x="1" y="0.5" width="47" height="47" rx="11.5" fill="white"/>
<rect x="1" y="0.5" width="47" height="47" rx="11.5" stroke="#F1F2F6"/>
<path d="M17.6856 19.6849L24.4999 14.1534L31.3144 19.6849H36.5L24.4999 9.8667L12.5 19.6849H17.6856Z" fill="#2AA65C"/>
<path d="M34.3168 15.3212V9.8667H29.9531V11.9229L34.3168 15.3212Z" fill="#2AA65C"/>
<path d="M18.376 21.8745L15.3273 21.8666C14.0228 21.8666 13.5898 22.7087 13.5898 23.3169C13.5898 24.3929 14.4576 25.0244 16.1453 24.9355C16.7628 28.0288 17.3823 30.7675 17.9968 33.8665L33.0025 33.8665C33.8287 29.7458 34.5875 25.9899 35.408 21.8665C32.6325 21.8374 29.92 21.8664 27.8101 21.8665H27.724C26.4195 21.8665 25.9873 22.8041 25.9847 23.3401C25.9821 23.8761 26.4195 24.9481 27.724 24.9481H31.9641C31.5554 27.0057 31.1436 29.0618 30.7292 31.1165L20.2067 31.1165C19.5949 28.0428 18.9848 24.9622 18.376 21.8745Z" fill="#2AA65C"/>
<path d="M19.6516 38.2305C20.6306 38.2305 21.4243 37.4368 21.4243 36.4578C21.4243 35.4787 20.6306 34.6851 19.6516 34.6851C18.6726 34.6851 17.8789 35.4787 17.8789 36.4578C17.8789 37.4368 18.6726 38.2305 19.6516 38.2305Z" fill="#2AA65C"/>
<path d="M31.0735 38.2305C32.0529 38.2305 32.8462 37.4368 32.8462 36.4578C32.8462 35.4787 32.0529 34.6851 31.0735 34.6851C30.0945 34.6851 29.3008 35.4787 29.3008 36.4578C29.3008 37.4368 30.0945 38.2305 31.0735 38.2305Z" fill="#2AA65C"/>
</svg>
