<svg width="18" height="22" viewBox="0 0 18 22" fill="none" xmlns="http://www.w3.org/2000/svg">
<g id="ic_dep">
<path id="Fill 4" fill-rule="evenodd" clip-rule="evenodd" d="M13.8484 1.27164C14.0421 1.14461 14.0517 0.891213 13.8683 0.752497C13.285 0.311145 12.8267 0.0444336 12 0.0444336C10.8469 0.0444336 9.60094 0.25624 9 1.04443C8.399 0.25624 7.153 0.0444336 6 0.0444336C5.24488 0.0444336 4.70962 0.266939 4.15007 0.641829C3.94266 0.780799 3.95193 1.0561 4.16742 1.18511C5.16561 1.78276 5.6253 3.25538 6 4.04443C6.15927 4.38 6.58981 5.04443 7 5.04443H11C11.4181 5.04443 11.8443 4.38889 12 4.04443C12.3472 3.27601 12.9423 1.86578 13.8484 1.27164Z" fill="#2AA65C"/>
<path id="Fill 1" fill-rule="evenodd" clip-rule="evenodd" d="M16.3759 17.6197C18.051 13.7931 16.2428 9.42509 12.2828 7.72071C8.25769 5.98832 3.52371 7.69899 1.70865 11.542C0.624135 13.8382 0.827379 16.376 2.02515 18.4168C2.51987 19.2597 3.12872 20.0444 4.14079 20.0444H13.5631C14.5716 20.0444 15.4707 19.2647 15.9646 18.4252C16.1161 18.1678 16.2536 17.8991 16.3759 17.6197Z" stroke="#2AA65C" stroke-width="2" stroke-linecap="round" stroke-linejoin="round"/>
</g>
</svg>
