<svg width="24" height="19" viewBox="0 0 24 19" fill="none" xmlns="http://www.w3.org/2000/svg">
<g id="Group 486">
<g id="Vector" opacity="0.5">
<path d="M5.87881 8.33611C6.02621 8.23763 6.19949 8.18506 6.37677 8.18506C6.61448 8.18506 6.84245 8.27949 7.01054 8.44758C7.17863 8.61567 7.27306 8.84364 7.27306 9.08135C7.27306 9.25863 7.2205 9.43192 7.12201 9.57931C7.02352 9.72671 6.88354 9.84159 6.71976 9.90942C6.55599 9.97726 6.37577 9.99501 6.20191 9.96043C6.02804 9.92585 5.86834 9.84048 5.74299 9.71513C5.61764 9.58978 5.53228 9.43008 5.49769 9.25621C5.46311 9.08235 5.48086 8.90213 5.5487 8.73836C5.61653 8.57458 5.73142 8.4346 5.87881 8.33611Z" fill="#2AA65C"/>
<path d="M16.6344 8.33611C16.7818 8.23763 16.955 8.18506 17.1323 8.18506C17.37 8.18506 17.598 8.27949 17.7661 8.44758C17.9342 8.61567 18.0286 8.84364 18.0286 9.08135C18.0286 9.25863 17.9761 9.43192 17.8776 9.57931C17.7791 9.72671 17.6391 9.84159 17.4753 9.90942C17.3115 9.97726 17.1313 9.99501 16.9575 9.96043C16.7836 9.92585 16.6239 9.84048 16.4985 9.71513C16.3732 9.58978 16.2878 9.43008 16.2532 9.25621C16.2187 9.08235 16.2364 8.90213 16.3043 8.73836C16.3721 8.57458 16.487 8.4346 16.6344 8.33611Z" fill="#2AA65C"/>
</g>
<rect id="Rectangle 158" x="1" y="1.04443" width="22" height="16" rx="2" stroke="#2AA65C" stroke-width="2" stroke-linecap="round" stroke-linejoin="round"/>
<path id="Vector_2" d="M13.9297 9.05127C13.9297 7.84315 12.9503 6.86377 11.7422 6.86377C10.5341 6.86377 9.55469 7.84315 9.55469 9.05127C9.55469 10.2594 10.5341 11.2388 11.7422 11.2388C12.9503 11.2388 13.9297 10.2594 13.9297 9.05127Z" fill="#2AA65C"/>
</g>
</svg>
