<svg width="49" height="48" viewBox="0 0 49 48" fill="none" xmlns="http://www.w3.org/2000/svg">
<rect x="1" y="0.5" width="47" height="47" rx="11.5" fill="white"/>
<rect x="1" y="0.5" width="47" height="47" rx="11.5" stroke="#F1F2F6"/>
<path d="M19.7109 33.1283C19.5621 33.3701 19.3948 33.5374 19.2088 33.6304C19.0414 33.7234 18.8555 33.7699 18.6509 33.7699C18.3348 33.7699 18.0651 33.6769 17.842 33.4909C17.6374 33.2864 17.5352 33.0168 17.5352 32.682C17.5352 32.4217 17.6002 32.1892 17.7304 31.9847L28.9717 14.6904C29.1205 14.4486 29.2785 14.2813 29.4459 14.1883C29.6319 14.0953 29.8271 14.0488 30.0317 14.0488C30.3292 14.0488 30.5896 14.1511 30.8127 14.3557C31.0545 14.5416 31.1753 14.7927 31.1753 15.1088C31.1753 15.3505 31.1009 15.5923 30.9522 15.834L19.7109 33.1283Z" fill="#2AA65C"/>
<path d="M16.8648 18.6791C16.8648 19.6832 17.0508 20.4178 17.4227 20.8827C17.7946 21.329 18.2595 21.5521 18.8174 21.5521C19.4125 21.5521 19.8867 21.329 20.24 20.8827C20.6119 20.4178 20.7979 19.6832 20.7979 18.6791C20.7979 17.7307 20.6026 17.024 20.2121 16.5591C19.8402 16.0756 19.3753 15.8339 18.8174 15.8339C18.2781 15.8339 17.8132 16.0663 17.4227 16.5312C17.0508 16.9775 16.8648 17.6935 16.8648 18.6791ZM23.2247 18.7069C23.2247 20.2876 22.8063 21.4778 21.9694 22.2774C21.1512 23.077 20.1005 23.4768 18.8174 23.4768C18.1851 23.4768 17.5994 23.3745 17.0601 23.17C16.5208 22.9654 16.0559 22.6679 15.6654 22.2774C15.2749 21.8683 14.968 21.3755 14.7449 20.799C14.5217 20.2039 14.4102 19.5159 14.4102 18.7348C14.4102 17.9166 14.531 17.21 14.7728 16.6149C15.0331 16.0012 15.3679 15.4991 15.777 15.1086C16.1861 14.6995 16.651 14.402 17.1717 14.216C17.7109 14.0115 18.2688 13.9092 18.8453 13.9092C19.4218 13.9092 19.9704 14.0115 20.491 14.216C21.0117 14.402 21.4766 14.6995 21.8857 15.1086C22.2949 15.4991 22.6203 16.0012 22.862 16.6149C23.1038 17.21 23.2247 17.9073 23.2247 18.7069ZM27.883 29.1114C27.883 30.1156 28.0689 30.8501 28.4408 31.315C28.8128 31.7613 29.287 31.9845 29.8634 31.9845C30.4585 31.9845 30.9327 31.7613 31.286 31.315C31.6394 30.8501 31.816 30.1156 31.816 29.1114C31.816 28.1444 31.6208 27.4285 31.2302 26.9636C30.8583 26.4801 30.4027 26.2383 29.8634 26.2383C29.3242 26.2383 28.8593 26.4708 28.4687 26.9357C28.0782 27.4006 27.883 28.1258 27.883 29.1114ZM34.2707 29.1114C34.2707 30.6921 33.8523 31.8915 33.0155 32.7097C32.1972 33.5094 31.1466 33.9092 29.8634 33.9092C29.2312 33.9092 28.6454 33.8069 28.1061 33.6023C27.5668 33.3978 27.1019 33.1003 26.7114 32.7097C26.3209 32.3006 26.0141 31.7985 25.7909 31.2035C25.5678 30.6084 25.4562 29.9296 25.4562 29.1672C25.4562 28.3304 25.5771 27.6144 25.8188 27.0194C26.0606 26.4057 26.386 25.9036 26.7951 25.5131C27.2042 25.1226 27.6691 24.8343 28.1898 24.6484C28.7291 24.4438 29.287 24.3415 29.8634 24.3415C30.4399 24.3415 30.9885 24.4438 31.5092 24.6484C32.0485 24.8343 32.5227 25.1226 32.9318 25.5131C33.3409 25.9036 33.6663 26.4057 33.9081 27.0194C34.1498 27.6144 34.2707 28.3118 34.2707 29.1114Z" fill="#2AA65C"/>
</svg>
