<svg width="24" height="24" viewBox="0 0 24 24" fill="none" xmlns="http://www.w3.org/2000/svg">
<g id="Content">
<g id="Group 1010105119">
<path id="%" d="M7.30073 21.2191C7.15196 21.4609 6.9846 21.6283 6.79864 21.7212C6.63128 21.8142 6.44532 21.8607 6.24076 21.8607C5.92463 21.8607 5.65499 21.7677 5.43183 21.5818C5.22728 21.3772 5.125 21.1076 5.125 20.7728C5.125 20.5125 5.19009 20.28 5.32026 20.0755L16.5615 2.78121C16.7103 2.53946 16.8684 2.3721 17.0357 2.27912C17.2217 2.18614 17.417 2.13965 17.6215 2.13965C17.9191 2.13965 18.1794 2.24193 18.4025 2.44648C18.6443 2.63244 18.7652 2.88349 18.7652 3.19962C18.7652 3.44137 18.6908 3.68312 18.542 3.92486L7.30073 21.2191Z" fill="#2AA65C"/>
<path id="%_2" d="M4.45467 6.76987C4.45467 7.77406 4.64063 8.5086 5.01255 8.9735C5.38447 9.41981 5.84937 9.64296 6.40725 9.64296C7.00233 9.64296 7.47652 9.41981 7.82985 8.9735C8.20177 8.5086 8.38773 7.77406 8.38773 6.76987C8.38773 5.82148 8.19247 5.11483 7.80195 4.64993C7.43003 4.16643 6.96513 3.92469 6.40725 3.92469C5.86797 3.92469 5.40307 4.15714 5.01255 4.62204C4.64063 5.06834 4.45467 5.78429 4.45467 6.76987ZM10.8145 6.79777C10.8145 8.37843 10.3961 9.56857 9.55928 10.3682C8.74105 11.1678 7.69038 11.5676 6.40725 11.5676C5.77499 11.5676 5.18921 11.4654 4.64993 11.2608C4.11065 11.0563 3.64575 10.7587 3.25523 10.3682C2.86471 9.95909 2.55788 9.4663 2.33473 8.88982C2.11158 8.29475 2 7.60669 2 6.82566C2 6.00744 2.12087 5.30079 2.36262 4.70572C2.62297 4.09205 2.95769 3.58996 3.36681 3.19944C3.77592 2.79033 4.24082 2.49279 4.76151 2.30683C5.30079 2.10228 5.85867 2 6.43515 2C7.01162 2 7.5602 2.10228 8.08089 2.30683C8.60158 2.49279 9.06648 2.79033 9.47559 3.19944C9.88471 3.58996 10.2101 4.09205 10.4519 4.70572C10.6936 5.30079 10.8145 5.99814 10.8145 6.79777ZM15.4728 17.2022C15.4728 18.2064 15.6588 18.941 16.0307 19.4059C16.4026 19.8522 16.8768 20.0753 17.4533 20.0753C18.0483 20.0753 18.5225 19.8522 18.8759 19.4059C19.2292 18.941 19.4059 18.2064 19.4059 17.2022C19.4059 16.2352 19.2106 15.5193 18.8201 15.0544C18.4482 14.5709 17.9926 14.3291 17.4533 14.3291C16.914 14.3291 16.4491 14.5616 16.0586 15.0265C15.6681 15.4914 15.4728 16.2166 15.4728 17.2022ZM21.8605 17.2022C21.8605 18.7829 21.4421 19.9823 20.6053 20.8006C19.7871 21.6002 18.7364 22 17.4533 22C16.821 22 16.2352 21.8977 15.696 21.6932C15.1567 21.4886 14.6918 21.1911 14.3013 20.8006C13.9107 20.3914 13.6039 19.8894 13.3808 19.2943C13.1576 18.6992 13.046 18.0205 13.046 17.258C13.046 16.4212 13.1669 15.7053 13.4086 15.1102C13.6504 14.4965 13.9758 13.9944 14.3849 13.6039C14.794 13.2134 15.259 12.9252 15.7796 12.7392C16.3189 12.5346 16.8768 12.4324 17.4533 12.4324C18.0298 12.4324 18.5783 12.5346 19.099 12.7392C19.6383 12.9252 20.1125 13.2134 20.5216 13.6039C20.9307 13.9944 21.2562 14.4965 21.4979 15.1102C21.7397 15.7053 21.8605 16.4026 21.8605 17.2022Z" fill="#2AA65C"/>
</g>
</g>
</svg>
