<svg width="20" height="20" viewBox="0 0 20 20" fill="none" xmlns="http://www.w3.org/2000/svg">
<g id="ic_phone-call">
<path id="Path" opacity="0.5" d="M11 5C13.0233 5.39475 14.6052 6.97672 15 9" stroke="#2AA65C" stroke-width="2" stroke-linecap="round" stroke-linejoin="round"/>
<path id="Path_2" opacity="0.5" d="M12 1C15.6801 1.40935 18.5865 4.31578 19 8" stroke="#2AA65C" stroke-width="2" stroke-linecap="round" stroke-linejoin="round"/>
<path id="Path_3" fill-rule="evenodd" clip-rule="evenodd" d="M18.9994 17.1862C19.0015 17.6948 18.7886 18.1808 18.413 18.5247C18.0375 18.8685 17.5341 19.0384 17.0265 18.9927C14.2415 18.6907 11.5664 17.7409 9.21601 16.2197C7.0293 14.8329 5.17534 12.9826 3.78581 10.8003C2.25628 8.44389 1.30442 5.76107 1.00735 2.96916C0.961624 2.46413 1.13068 1.96317 1.47323 1.58866C1.81578 1.21415 2.30028 1.00057 2.80837 1.00009H5.52347C6.43201 0.991165 7.20639 1.65581 7.33354 2.55366C7.44814 3.42084 7.66067 4.27229 7.96707 5.09177C8.21571 5.75193 8.05668 6.49614 7.5598 6.99761L6.41041 8.14473C7.69877 10.406 9.57482 12.2784 11.8406 13.5642L12.99 12.4171C13.4925 11.9212 14.2382 11.7625 14.8996 12.0106C15.7207 12.3164 16.5739 12.5285 17.4428 12.6429C18.3528 12.771 19.0222 13.5595 18.9994 14.4765V17.1862Z" stroke="#2AA65C" stroke-width="2" stroke-linecap="round" stroke-linejoin="round"/>
</g>
</svg>
