<svg width="44" height="44" viewBox="0 0 44 44" fill="none" xmlns="http://www.w3.org/2000/svg">
<rect x="0.5" y="0.5" width="43" height="43" rx="11.5" fill="white"/>
<rect x="0.5" y="0.5" width="43" height="43" rx="11.5" stroke="#F1F2F6"/>
<g clip-path="url(#clip0_3521_1753)">
<path d="M22 11.5885L24.2968 17.0723C24.5852 17.7608 25.2329 18.2314 25.9768 18.2929L31.9019 18.7827L27.3963 22.6617C26.8306 23.1486 26.5832 23.9101 26.7546 24.6366L28.1197 30.4231L23.0383 27.3366C22.4003 26.9491 21.5997 26.9491 20.9617 27.3366L15.8803 30.4231L17.2454 24.6366C17.4168 23.9101 17.1694 23.1486 16.6037 22.6617L12.0981 18.7827L18.0232 18.2929C18.7671 18.2314 19.4148 17.7608 19.7032 17.0723L22 11.5885Z" stroke="#2AA65C" stroke-width="2"/>
</g>
<defs>
<clipPath id="clip0_3521_1753">
<rect width="24" height="24" fill="white" transform="translate(10 10)"/>
</clipPath>
</defs>
</svg>
