<svg width="24" height="24" viewBox="0 0 24 24" fill="none" xmlns="http://www.w3.org/2000/svg">
<g id="Content">
<path id="Vector" d="M18.5769 3H4.73077C4.27174 3 3.83151 3.18235 3.50693 3.50693C3.18235 3.83151 3 4.27174 3 4.73077V9.81924C3 17.8119 9.75866 20.4635 11.1139 20.9117C11.4642 21.0294 11.8435 21.0294 12.1939 20.9117C13.549 20.4617 20.3077 17.8119 20.3077 9.81924V4.73077C20.3077 4.27174 20.1254 3.83151 19.8008 3.50693C19.4762 3.18235 19.036 3 18.5769 3ZM18.2308 9.81924C18.2308 16.185 12.9926 18.4324 11.6539 18.9058C10.3151 18.4367 5.07693 16.1893 5.07693 9.82356V5.07692H18.2308V9.81924Z" fill="#2AA65C"/>
<path id="Vector_2" d="M7.45703 12.3888C7.36043 12.2922 7.28381 12.1775 7.23153 12.0513C7.17925 11.9251 7.15234 11.7899 7.15234 11.6532C7.15234 11.5166 7.17925 11.3814 7.23153 11.2552C7.28381 11.1289 7.36043 11.0143 7.45703 10.9177C7.55363 10.8211 7.66831 10.7444 7.79452 10.6922C7.92073 10.6399 8.056 10.613 8.19261 10.613C8.32922 10.613 8.46449 10.6399 8.5907 10.6922C8.71691 10.7444 8.83159 10.8211 8.92819 10.9177L10.2687 12.2599L14.3801 8.14844C14.5752 7.95335 14.8398 7.84375 15.1157 7.84375C15.3916 7.84375 15.6562 7.95335 15.8513 8.14844C16.0464 8.34352 16.156 8.60812 16.156 8.88401C16.156 9.15991 16.0464 9.4245 15.8513 9.61959L11.0051 14.4657C10.9086 14.5626 10.794 14.6394 10.6678 14.6918C10.5415 14.7442 10.4062 14.7712 10.2695 14.7712C10.1329 14.7712 9.99753 14.7442 9.8713 14.6918C9.74507 14.6394 9.63043 14.5626 9.53396 14.4657L7.45703 12.3888Z" fill="#2AA65C"/>
</g>
</svg>
