<svg width="49" height="48" viewBox="0 0 49 48" fill="none" xmlns="http://www.w3.org/2000/svg">
<rect x="1" y="0.5" width="47" height="47" rx="11.5" fill="white"/>
<rect x="1" y="0.5" width="47" height="47" rx="11.5" stroke="#F1F2F6"/>
<g clip-path="url(#clip0_3528_2435)">
<path fill-rule="evenodd" clip-rule="evenodd" d="M30.2939 27.5786H29.3905L29.0703 27.2699C30.191 25.9663 30.8656 24.2739 30.8656 22.4328C30.8656 18.3276 27.538 15 23.4328 15C19.3276 15 16 18.3276 16 22.4328C16 26.538 19.3276 29.8656 23.4328 29.8656C25.2739 29.8656 26.9663 29.191 28.2699 28.0703L28.5786 28.3905V29.2939L34.2962 35L36 33.2962L30.2939 27.5786ZM23.4328 27.5786C20.5855 27.5786 18.287 25.2802 18.287 22.4328C18.287 19.5855 20.5855 17.287 23.4328 17.287C26.2802 17.287 28.5786 19.5855 28.5786 22.4328C28.5786 25.2802 26.2802 27.5786 23.4328 27.5786Z" fill="#2AA65C"/>
</g>
<defs>
<clipPath id="clip0_3528_2435">
<rect width="26.1818" height="26.1818" fill="white" transform="translate(11.4102 10.9092)"/>
</clipPath>
</defs>
</svg>
