<svg width="24" height="24" viewBox="0 0 24 24" fill="none" xmlns="http://www.w3.org/2000/svg">
<rect x="6" y="3" width="12" height="18" rx="2" stroke="#2AA65C" stroke-width="2" stroke-linecap="round" stroke-linejoin="round"/>
<path opacity="0.2" d="M8 7.6C8 6.71634 8.71634 6 9.6 6H14.4C15.2837 6 16 6.71634 16 7.6V16.4C16 17.2837 15.2837 18 14.4 18H9.6C8.71634 18 8 17.2837 8 16.4V7.6Z" fill="#2AA65C"/>
<path d="M13.5 17.5C13.5 18.3284 12.8284 19 12 19C11.1716 19 10.5 18.3284 10.5 17.5C10.5 16.6716 11.1716 16 12 16C12.8284 16 13.5 16.6716 13.5 17.5Z" fill="#2AA65C"/>
</svg>
