<svg width="24" height="24" viewBox="0 0 24 24" fill="none" xmlns="http://www.w3.org/2000/svg">
<g clip-path="url(#clip0_3521_1754)">
<path d="M6.60372 12.6617L5.95128 13.4195L6.60372 12.6617L2.09809 8.78267L8.02323 8.29286C8.76711 8.23136 9.41483 7.76076 9.70319 7.0723L12 1.58852L14.2968 7.0723C14.5852 7.76076 15.2329 8.23136 15.9768 8.29286L21.9019 8.78268L17.3963 12.6617C16.8306 13.1486 16.5832 13.9101 16.7546 14.6366L18.1197 20.4231L13.0383 17.3366C12.4003 16.9491 11.5997 16.9491 10.9617 17.3366L11.4809 18.1913L10.9617 17.3366L5.88029 20.4231L7.24541 14.6366C7.41679 13.9101 7.16938 13.1486 6.60372 12.6617Z" stroke="#2AA65C" stroke-width="2"/>
</g>
<defs>
<clipPath id="clip0_3521_1754">
<rect width="24" height="24" fill="white"/>
</clipPath>
</defs>
</svg>
